Coordinates
version=1
nRows=21
nColumns=12
inDegrees=yes

Units are S.I. units (second, meters, Newtons, ...)
Angles are in degrees

endheader
time	SC_y	SC_z	SC_x	AC_y	AC_z	AC_x	GH_y	GH_z	GH_yy	EL_x	PS_y
       0.0               -23.5          11.97           82.3          41.07          2.483          15.25          176.0          87.87         -154.3           99.6          47.13
    0.0179               -23.5          11.98          82.29          41.07          2.481          15.25          176.0          87.86         -154.3          99.59          47.14
   0.03579               -23.5          11.98          82.28          41.07          2.479          15.24          175.9          87.85         -154.2          99.59          47.15
   0.05369               -23.5          11.98          82.27          41.08          2.477          15.24          175.9          87.84         -154.2          99.59          47.15
   0.07159               -23.5          11.98          82.26          41.08          2.475          15.23          175.8          87.83         -154.2          99.59          47.16
   0.08948               -23.5          11.98          82.25          41.08          2.473          15.22          175.8          87.82         -154.1          99.59          47.17
    0.1074               -23.5          11.98          82.24          41.09           2.47          15.22          175.7          87.81         -154.0          99.59          47.18
    0.1253               -23.5          11.98          82.23          41.09          2.468          15.21          175.6           87.8         -154.0          99.58          47.19
    0.1432               -23.5          11.98          82.22           41.1          2.465           15.2          175.6          87.78         -153.9          99.58           47.2
    0.1611              -23.49          11.98           82.2           41.1          2.462           15.2          175.5          87.77         -153.9          99.58          47.21
     0.179              -23.49          11.98          82.19          41.11          2.459          15.19          175.4          87.75         -153.8          99.58          47.22
    0.1969              -23.49          11.98          82.17          41.11          2.456          15.18          175.3          87.74         -153.7          99.57          47.23
    0.2148              -23.49          11.98          82.15          41.12          2.452          15.17          175.2          87.72         -153.6          99.57          47.25
    0.2327              -23.49          11.98          82.13          41.13          2.448          15.16          175.1           87.7         -153.5          99.57          47.26
    0.2505              -23.49          11.99          82.11          41.14          2.444          15.15          175.0          87.68         -153.4          99.56          47.28
    0.2684              -23.49          11.99          82.09          41.14           2.44          15.14          174.8          87.65         -153.3          99.56          47.29
    0.2863              -23.49          11.99          82.07          41.15          2.435          15.13          174.7          87.63         -153.2          99.56          47.31
    0.3042              -23.49          11.99          82.04          41.16          2.429          15.11          174.5           87.6         -153.1          99.55          47.33
    0.3221              -23.48          11.99          82.01          41.17          2.423           15.1          174.4          87.57         -152.9          99.55          47.35
      0.34              -23.48          11.99          81.98          41.18          2.417          15.08          174.2          87.54         -152.8          99.54          47.38
    0.3579              -23.48           12.0          81.95           41.2           2.41          15.06          174.0           87.5         -152.6          99.54          47.41
